# xmcd
#
# Track frame offsets: 
#        150
#        14198
#        30351
#        45511
#        67187
#        82111
#        94885
#        105552
#        121749
#        134581
#        147497
#        162043
#
# Disc length: 2458 seconds
#
# Revision: 2
# Processed by: cddbd v1.5.2PL0 Copyright (c) Steve Scherf et al.
# Submitted via: ExactAudioCopy v0.95a5
#
DISCID=a609980c
DTITLE=Pernice Brothers - Live A Little
DYEAR=2006
DGENRE=Pop
TTITLE0=Automaton
TTITLE1=Somerville
TTITLE2=Cruelty To Animals
TTITLE3=Zero Refills
TTITLE4=Microscopic View
TTITLE5=How Can I Compare
TTITLE6=B.S. Johnson
TTITLE7=PCH One
TTITLE8=Conscience Clean (I Went To Spain)
TTITLE9=Lighheaded
TTITLE10=High As A Kite
TTITLE11=Grudge F*** (2006)
EXTD=
EXTT0=
EXTT1=
EXTT2=
EXTT3=
EXTT4=
EXTT5=
EXTT6=
EXTT7=
EXTT8=
EXTT9=
EXTT10=
EXTT11=
PLAYORDER=
